# xmcd
#
# Track frame offsets:
#	150
#	28891
#	57900
#	81185
#	133781
#	156108
#	180475
#	210091
#	250820
#	272329
#	303058
#	323112
#
# Disc length: 4571 seconds
#
# Revision: 1
# Processed by: cddbd v1.5.2PL0 Copyright (c) Steve Scherf et al.
# Submitted via: audiograbber 1.81.03
#
DISCID=9411d90c
DTITLE=Uncle Jim]p[Micheal`Hermiston - Saturday With Keys And No Cab
DYEAR=2004
DGENRE=Blues
TTITLE0=Closing Down
TTITLE1=As Time Goes By
TTITLE2=Pull The Rug Out
TTITLE3=Blues And Good Times
TTITLE4=Sing The Rain Wet
TTITLE5=Don't Tailgate Me Baby
TTITLE6=Over The Rainbow
TTITLE7=Bobby McGee
TTITLE8=No Bobby McGee
TTITLE9=Five Foot Two
TTITLE10=Ain't Cha Got A Dog No More
TTITLE11=Love And The Story Of Love
EXTD=
EXTT0=
EXTT1=
EXTT2=
EXTT3=
EXTT4=
EXTT5=
EXTT6=
EXTT7=
EXTT8=
EXTT9=
EXTT10=
EXTT11=
PLAYORDER=
